<mxfile host="65bd71144e">
    <diagram id="nHIczL2DTzUQYH4GLJEw" name="Page-1">
        <mxGraphModel dx="1130" dy="784" grid="1" gridSize="10" guides="1" tooltips="1" connect="1" arrows="1" fold="1" page="1" pageScale="1" pageWidth="850" pageHeight="1100" math="0" shadow="0">
            <root>
                <mxCell id="0"/>
                <mxCell id="1" parent="0"/>
                <mxCell id="34" style="edgeStyle=none;html=1;" parent="1" source="2" target="4" edge="1">
                    <mxGeometry relative="1" as="geometry"/>
                </mxCell>
                <mxCell id="2" value="Inicio" style="ellipse;whiteSpace=wrap;html=1;fillColor=#60a917;fontColor=#ffffff;strokeColor=#2D7600;" parent="1" vertex="1">
                    <mxGeometry x="110" y="10" width="205" height="80" as="geometry"/>
                </mxCell>
                <mxCell id="35" style="edgeStyle=none;html=1;" parent="1" source="4" target="5" edge="1">
                    <mxGeometry relative="1" as="geometry"/>
                </mxCell>
                <mxCell id="4" value="Mostrar menú" style="rounded=1;whiteSpace=wrap;html=1;fillColor=#1ba1e2;fontColor=#ffffff;strokeColor=#006EAF;" parent="1" vertex="1">
                    <mxGeometry x="137.5" y="130" width="150" height="60" as="geometry"/>
                </mxCell>
                <mxCell id="36" value="No" style="edgeStyle=none;html=1;entryX=0.5;entryY=0;entryDx=0;entryDy=0;" parent="1" source="5" target="6" edge="1">
                    <mxGeometry relative="1" as="geometry"/>
                </mxCell>
                <mxCell id="43" value="Si" style="edgeStyle=none;html=1;" parent="1" source="5" target="19" edge="1">
                    <mxGeometry relative="1" as="geometry"/>
                </mxCell>
                <mxCell id="5" value="¿Eligió &quot;Crear &lt;br&gt;tarea&quot;?" style="rhombus;whiteSpace=wrap;html=1;fillColor=#f0a30a;fontColor=#000000;strokeColor=#BD7000;" parent="1" vertex="1">
                    <mxGeometry x="115" y="230" width="195" height="80" as="geometry"/>
                </mxCell>
                <mxCell id="37" value="No" style="edgeStyle=none;html=1;" parent="1" source="6" target="7" edge="1">
                    <mxGeometry relative="1" as="geometry"/>
                </mxCell>
                <mxCell id="44" value="Si" style="edgeStyle=none;html=1;" parent="1" source="6" target="20" edge="1">
                    <mxGeometry relative="1" as="geometry"/>
                </mxCell>
                <mxCell id="6" value="¿Eligió &quot;Listar&lt;br&gt;tarea&quot;?" style="rhombus;whiteSpace=wrap;html=1;fillColor=#f0a30a;fontColor=#000000;strokeColor=#BD7000;" parent="1" vertex="1">
                    <mxGeometry x="115" y="340" width="195" height="80" as="geometry"/>
                </mxCell>
                <mxCell id="38" value="No" style="edgeStyle=none;html=1;" parent="1" source="7" target="8" edge="1">
                    <mxGeometry relative="1" as="geometry"/>
                </mxCell>
                <mxCell id="45" value="Si" style="edgeStyle=none;html=1;" parent="1" source="7" target="21" edge="1">
                    <mxGeometry relative="1" as="geometry"/>
                </mxCell>
                <mxCell id="7" value="¿Eligió &quot;Listar&lt;br&gt;tareas completadas&quot;?" style="rhombus;whiteSpace=wrap;html=1;fillColor=#f0a30a;fontColor=#000000;strokeColor=#BD7000;" parent="1" vertex="1">
                    <mxGeometry x="110" y="450" width="200" height="80" as="geometry"/>
                </mxCell>
                <mxCell id="39" value="No" style="edgeStyle=none;html=1;entryX=0.5;entryY=0;entryDx=0;entryDy=0;" parent="1" source="8" target="9" edge="1">
                    <mxGeometry relative="1" as="geometry"/>
                </mxCell>
                <mxCell id="46" value="Si" style="edgeStyle=none;html=1;entryX=0;entryY=0.5;entryDx=0;entryDy=0;" parent="1" source="8" target="22" edge="1">
                    <mxGeometry relative="1" as="geometry"/>
                </mxCell>
                <mxCell id="8" value="¿Eligió &quot;Listar&lt;br&gt;tareas pendientes&quot;?" style="rhombus;whiteSpace=wrap;html=1;fillColor=#f0a30a;fontColor=#000000;strokeColor=#BD7000;" parent="1" vertex="1">
                    <mxGeometry x="110" y="560" width="200" height="80" as="geometry"/>
                </mxCell>
                <mxCell id="40" value="No" style="edgeStyle=none;html=1;entryX=0.5;entryY=0;entryDx=0;entryDy=0;" parent="1" source="9" target="10" edge="1">
                    <mxGeometry relative="1" as="geometry"/>
                </mxCell>
                <mxCell id="47" value="Si" style="edgeStyle=none;html=1;entryX=0;entryY=0.5;entryDx=0;entryDy=0;" parent="1" source="9" target="23" edge="1">
                    <mxGeometry relative="1" as="geometry"/>
                </mxCell>
                <mxCell id="9" value="¿Eligió &quot;Completar &lt;br&gt;tareas&quot;?" style="rhombus;whiteSpace=wrap;html=1;fillColor=#f0a30a;fontColor=#000000;strokeColor=#BD7000;" parent="1" vertex="1">
                    <mxGeometry x="110" y="670" width="200" height="80" as="geometry"/>
                </mxCell>
                <mxCell id="41" value="No" style="edgeStyle=none;html=1;entryX=0.5;entryY=0;entryDx=0;entryDy=0;" parent="1" source="10" target="12" edge="1">
                    <mxGeometry relative="1" as="geometry"/>
                </mxCell>
                <mxCell id="48" value="Si" style="edgeStyle=none;html=1;entryX=0;entryY=0.5;entryDx=0;entryDy=0;" parent="1" source="10" target="24" edge="1">
                    <mxGeometry relative="1" as="geometry"/>
                </mxCell>
                <mxCell id="10" value="¿Eligió &quot;Borrar &lt;br&gt;tarea&quot;?" style="rhombus;whiteSpace=wrap;html=1;fillColor=#f0a30a;fontColor=#000000;strokeColor=#BD7000;" parent="1" vertex="1">
                    <mxGeometry x="110" y="780" width="200" height="80" as="geometry"/>
                </mxCell>
                <mxCell id="49" value="Si" style="edgeStyle=none;html=1;entryX=0.5;entryY=0;entryDx=0;entryDy=0;" parent="1" source="12" target="14" edge="1">
                    <mxGeometry relative="1" as="geometry"/>
                </mxCell>
                <mxCell id="56" style="edgeStyle=none;html=1;entryX=1;entryY=0.5;entryDx=0;entryDy=0;" parent="1" source="12" target="4" edge="1">
                    <mxGeometry relative="1" as="geometry">
                        <Array as="points">
                            <mxPoint x="800" y="930"/>
                            <mxPoint x="800" y="530"/>
                            <mxPoint x="800" y="160"/>
                        </Array>
                    </mxGeometry>
                </mxCell>
                <mxCell id="78" value="No" style="edgeLabel;html=1;align=center;verticalAlign=middle;resizable=0;points=[];" vertex="1" connectable="0" parent="56">
                    <mxGeometry x="-0.9458" relative="1" as="geometry">
                        <mxPoint as="offset"/>
                    </mxGeometry>
                </mxCell>
                <mxCell id="12" value="¿Eligió &quot;Salir&quot;?" style="rhombus;whiteSpace=wrap;html=1;fillColor=#f0a30a;fontColor=#000000;strokeColor=#BD7000;" parent="1" vertex="1">
                    <mxGeometry x="110" y="890" width="200" height="80" as="geometry"/>
                </mxCell>
                <mxCell id="14" value="Fin" style="ellipse;whiteSpace=wrap;html=1;fillColor=#60a917;fontColor=#ffffff;strokeColor=#2D7600;" parent="1" vertex="1">
                    <mxGeometry x="107.5" y="1010" width="205" height="80" as="geometry"/>
                </mxCell>
                <mxCell id="55" value="No" style="edgeStyle=none;html=1;entryX=0;entryY=0.5;entryDx=0;entryDy=0;" parent="1" source="19" target="26" edge="1">
                    <mxGeometry relative="1" as="geometry"/>
                </mxCell>
                <mxCell id="63" style="edgeStyle=none;html=1;entryX=1;entryY=0.5;entryDx=0;entryDy=0;" parent="1" source="19" target="4" edge="1">
                    <mxGeometry relative="1" as="geometry">
                        <Array as="points">
                            <mxPoint x="448" y="330"/>
                            <mxPoint x="800" y="330"/>
                            <mxPoint x="800" y="230"/>
                            <mxPoint x="800" y="160"/>
                        </Array>
                    </mxGeometry>
                </mxCell>
                <mxCell id="72" value="SI" style="edgeLabel;html=1;align=center;verticalAlign=middle;resizable=0;points=[];" vertex="1" connectable="0" parent="63">
                    <mxGeometry x="-0.7949" y="1" relative="1" as="geometry">
                        <mxPoint as="offset"/>
                    </mxGeometry>
                </mxCell>
                <mxCell id="19" value="¿Canceló la acción?" style="rhombus;whiteSpace=wrap;html=1;fillColor=#f0a30a;fontColor=#000000;strokeColor=#BD7000;" parent="1" vertex="1">
                    <mxGeometry x="350" y="230" width="195" height="80" as="geometry"/>
                </mxCell>
                <mxCell id="54" value="No" style="edgeStyle=none;html=1;entryX=0;entryY=0.5;entryDx=0;entryDy=0;" parent="1" source="20" target="27" edge="1">
                    <mxGeometry relative="1" as="geometry"/>
                </mxCell>
                <mxCell id="62" style="edgeStyle=none;html=1;entryX=1;entryY=0.5;entryDx=0;entryDy=0;" parent="1" source="20" target="4" edge="1">
                    <mxGeometry relative="1" as="geometry">
                        <Array as="points">
                            <mxPoint x="448" y="440"/>
                            <mxPoint x="800" y="440"/>
                            <mxPoint x="800" y="260"/>
                            <mxPoint x="800" y="160"/>
                        </Array>
                    </mxGeometry>
                </mxCell>
                <mxCell id="73" value="Si" style="edgeLabel;html=1;align=center;verticalAlign=middle;resizable=0;points=[];" vertex="1" connectable="0" parent="62">
                    <mxGeometry x="-0.804" y="1" relative="1" as="geometry">
                        <mxPoint as="offset"/>
                    </mxGeometry>
                </mxCell>
                <mxCell id="20" value="¿Canceló la acción?" style="rhombus;whiteSpace=wrap;html=1;fillColor=#f0a30a;fontColor=#000000;strokeColor=#BD7000;" parent="1" vertex="1">
                    <mxGeometry x="350" y="340" width="195" height="80" as="geometry"/>
                </mxCell>
                <mxCell id="53" value="No" style="edgeStyle=none;html=1;entryX=0;entryY=0.5;entryDx=0;entryDy=0;" parent="1" source="21" target="28" edge="1">
                    <mxGeometry relative="1" as="geometry"/>
                </mxCell>
                <mxCell id="61" style="edgeStyle=none;html=1;entryX=1;entryY=0.5;entryDx=0;entryDy=0;" parent="1" source="21" target="4" edge="1">
                    <mxGeometry relative="1" as="geometry">
                        <Array as="points">
                            <mxPoint x="448" y="550"/>
                            <mxPoint x="800" y="550"/>
                            <mxPoint x="800" y="310"/>
                            <mxPoint x="800" y="160"/>
                        </Array>
                    </mxGeometry>
                </mxCell>
                <mxCell id="74" value="Si" style="edgeLabel;html=1;align=center;verticalAlign=middle;resizable=0;points=[];" vertex="1" connectable="0" parent="61">
                    <mxGeometry x="-0.8209" y="4" relative="1" as="geometry">
                        <mxPoint as="offset"/>
                    </mxGeometry>
                </mxCell>
                <mxCell id="21" value="¿Canceló la acción?" style="rhombus;whiteSpace=wrap;html=1;fillColor=#f0a30a;fontColor=#000000;strokeColor=#BD7000;" parent="1" vertex="1">
                    <mxGeometry x="350" y="450" width="195" height="80" as="geometry"/>
                </mxCell>
                <mxCell id="52" value="No" style="edgeStyle=none;html=1;" parent="1" source="22" target="29" edge="1">
                    <mxGeometry relative="1" as="geometry"/>
                </mxCell>
                <mxCell id="59" style="edgeStyle=none;html=1;entryX=1;entryY=0.5;entryDx=0;entryDy=0;" parent="1" source="22" target="4" edge="1">
                    <mxGeometry relative="1" as="geometry">
                        <Array as="points">
                            <mxPoint x="448" y="660"/>
                            <mxPoint x="800" y="660"/>
                            <mxPoint x="800" y="360"/>
                            <mxPoint x="800" y="160"/>
                        </Array>
                    </mxGeometry>
                </mxCell>
                <mxCell id="75" value="Si" style="edgeLabel;html=1;align=center;verticalAlign=middle;resizable=0;points=[];" vertex="1" connectable="0" parent="59">
                    <mxGeometry x="-0.8265" y="4" relative="1" as="geometry">
                        <mxPoint as="offset"/>
                    </mxGeometry>
                </mxCell>
                <mxCell id="22" value="¿Canceló la acción?" style="rhombus;whiteSpace=wrap;html=1;fillColor=#f0a30a;fontColor=#000000;strokeColor=#BD7000;" parent="1" vertex="1">
                    <mxGeometry x="350" y="560" width="195" height="80" as="geometry"/>
                </mxCell>
                <mxCell id="51" value="No" style="edgeStyle=none;html=1;entryX=0;entryY=0.5;entryDx=0;entryDy=0;" parent="1" source="23" target="30" edge="1">
                    <mxGeometry relative="1" as="geometry"/>
                </mxCell>
                <mxCell id="58" style="edgeStyle=none;html=1;exitX=0.5;exitY=1;exitDx=0;exitDy=0;endArrow=classic;endFill=1;entryX=1;entryY=0.5;entryDx=0;entryDy=0;" parent="1" source="23" target="4" edge="1">
                    <mxGeometry relative="1" as="geometry">
                        <mxPoint x="290" y="160" as="targetPoint"/>
                        <mxPoint x="450" y="770" as="sourcePoint"/>
                        <Array as="points">
                            <mxPoint x="448" y="770"/>
                            <mxPoint x="800" y="770"/>
                            <mxPoint x="800" y="410"/>
                            <mxPoint x="800" y="160"/>
                            <mxPoint x="300" y="160"/>
                        </Array>
                    </mxGeometry>
                </mxCell>
                <mxCell id="76" value="Si" style="edgeLabel;html=1;align=center;verticalAlign=middle;resizable=0;points=[];" vertex="1" connectable="0" parent="58">
                    <mxGeometry x="-0.8354" y="1" relative="1" as="geometry">
                        <mxPoint as="offset"/>
                    </mxGeometry>
                </mxCell>
                <mxCell id="23" value="¿Canceló la acción?" style="rhombus;whiteSpace=wrap;html=1;fillColor=#f0a30a;fontColor=#000000;strokeColor=#BD7000;" parent="1" vertex="1">
                    <mxGeometry x="350" y="670" width="195" height="80" as="geometry"/>
                </mxCell>
                <mxCell id="50" value="No" style="edgeStyle=none;html=1;entryX=0;entryY=0.5;entryDx=0;entryDy=0;" parent="1" source="24" target="31" edge="1">
                    <mxGeometry relative="1" as="geometry"/>
                </mxCell>
                <mxCell id="57" style="edgeStyle=none;html=1;entryX=1;entryY=0.5;entryDx=0;entryDy=0;" parent="1" source="24" target="4" edge="1">
                    <mxGeometry relative="1" as="geometry">
                        <mxPoint x="290" y="160" as="targetPoint"/>
                        <Array as="points">
                            <mxPoint x="448" y="880"/>
                            <mxPoint x="800" y="880"/>
                            <mxPoint x="800" y="450"/>
                            <mxPoint x="800" y="160"/>
                            <mxPoint x="300" y="160"/>
                        </Array>
                    </mxGeometry>
                </mxCell>
                <mxCell id="77" value="Si" style="edgeLabel;html=1;align=center;verticalAlign=middle;resizable=0;points=[];" vertex="1" connectable="0" parent="57">
                    <mxGeometry x="-0.8428" y="-4" relative="1" as="geometry">
                        <mxPoint as="offset"/>
                    </mxGeometry>
                </mxCell>
                <mxCell id="24" value="¿Canceló la acción?" style="rhombus;whiteSpace=wrap;html=1;fillColor=#f0a30a;fontColor=#000000;strokeColor=#BD7000;" parent="1" vertex="1">
                    <mxGeometry x="350" y="780" width="195" height="80" as="geometry"/>
                </mxCell>
                <mxCell id="64" style="edgeStyle=none;html=1;endArrow=none;endFill=0;" parent="1" source="26" edge="1">
                    <mxGeometry relative="1" as="geometry">
                        <mxPoint x="800" y="250" as="targetPoint"/>
                        <Array as="points">
                            <mxPoint x="800" y="270"/>
                        </Array>
                    </mxGeometry>
                </mxCell>
                <mxCell id="26" value="Crear nueva tarea" style="rounded=1;whiteSpace=wrap;html=1;fillColor=#1ba1e2;fontColor=#ffffff;strokeColor=#006EAF;" parent="1" vertex="1">
                    <mxGeometry x="590" y="240" width="150" height="60" as="geometry"/>
                </mxCell>
                <mxCell id="65" style="edgeStyle=none;html=1;endArrow=none;endFill=0;" parent="1" source="27" edge="1">
                    <mxGeometry relative="1" as="geometry">
                        <mxPoint x="800" y="360" as="targetPoint"/>
                        <Array as="points">
                            <mxPoint x="800" y="380"/>
                        </Array>
                    </mxGeometry>
                </mxCell>
                <mxCell id="27" value="Mostrar lista de tareas" style="rounded=1;whiteSpace=wrap;html=1;fillColor=#1ba1e2;fontColor=#ffffff;strokeColor=#006EAF;" parent="1" vertex="1">
                    <mxGeometry x="590" y="350" width="150" height="60" as="geometry"/>
                </mxCell>
                <mxCell id="66" style="edgeStyle=none;html=1;endArrow=none;endFill=0;" parent="1" source="28" edge="1">
                    <mxGeometry relative="1" as="geometry">
                        <mxPoint x="800" y="470" as="targetPoint"/>
                        <Array as="points">
                            <mxPoint x="800" y="490"/>
                        </Array>
                    </mxGeometry>
                </mxCell>
                <mxCell id="28" value="Mostrar lista de tareas completadas" style="rounded=1;whiteSpace=wrap;html=1;fillColor=#1ba1e2;fontColor=#ffffff;strokeColor=#006EAF;" parent="1" vertex="1">
                    <mxGeometry x="590" y="460" width="150" height="60" as="geometry"/>
                </mxCell>
                <mxCell id="67" style="edgeStyle=none;html=1;endArrow=none;endFill=0;" parent="1" source="29" edge="1">
                    <mxGeometry relative="1" as="geometry">
                        <mxPoint x="800" y="580" as="targetPoint"/>
                        <Array as="points">
                            <mxPoint x="800" y="600"/>
                        </Array>
                    </mxGeometry>
                </mxCell>
                <mxCell id="29" value="Mostrar lista de tareas pendientes" style="rounded=1;whiteSpace=wrap;html=1;fillColor=#1ba1e2;fontColor=#ffffff;strokeColor=#006EAF;" parent="1" vertex="1">
                    <mxGeometry x="590" y="570" width="150" height="60" as="geometry"/>
                </mxCell>
                <mxCell id="30" value="Completar tareas de la lista" style="rounded=1;whiteSpace=wrap;html=1;fillColor=#1ba1e2;fontColor=#ffffff;strokeColor=#006EAF;" parent="1" vertex="1">
                    <mxGeometry x="590" y="680" width="150" height="60" as="geometry"/>
                </mxCell>
                <mxCell id="31" value="Borrar tarea de la lista" style="rounded=1;whiteSpace=wrap;html=1;fillColor=#1ba1e2;fontColor=#ffffff;strokeColor=#006EAF;" parent="1" vertex="1">
                    <mxGeometry x="590" y="790" width="150" height="60" as="geometry"/>
                </mxCell>
                <mxCell id="70" style="edgeStyle=none;html=1;endArrow=none;endFill=0;" parent="1" edge="1">
                    <mxGeometry relative="1" as="geometry">
                        <mxPoint x="800" y="690" as="targetPoint"/>
                        <mxPoint x="740" y="710" as="sourcePoint"/>
                        <Array as="points">
                            <mxPoint x="800" y="710"/>
                        </Array>
                    </mxGeometry>
                </mxCell>
                <mxCell id="71" style="edgeStyle=none;html=1;endArrow=none;endFill=0;" parent="1" edge="1">
                    <mxGeometry relative="1" as="geometry">
                        <mxPoint x="800" y="800" as="targetPoint"/>
                        <mxPoint x="740" y="820" as="sourcePoint"/>
                        <Array as="points">
                            <mxPoint x="800" y="820"/>
                        </Array>
                    </mxGeometry>
                </mxCell>
            </root>
        </mxGraphModel>
    </diagram>
</mxfile>